# xmcd
#
# Track frame offsets:
#	150
#	14567
#	27964
#	46533
#	61789
#	76111
#	85341
#	96630
#	108908
#	122703
#	137353
#
# Disc length: 2092 seconds
#
# Revision: 0
# Processed by: cddbd v1.5.2PL0 Copyright (c) Steve Scherf et al.
# Submitted via: dBpowerAMP V4.0
#
DISCID=7f082a0b
DTITLE=Angela Lidin - I'll be back
DYEAR=2002
DGENRE=Country
TTITLE0=Coat of many colors
TTITLE1=Feeling
TTITLE2=Crazy dad
TTITLE3=Grand canyon
TTITLE4=Gamblin' man
TTITLE5=Bye and bye
TTITLE6=Heart's may be broken
TTITLE7=To let go
TTITLE8=Everybody knew
TTITLE9=One way street
TTITLE10=I'll be back
EXTD=
EXTT0=
EXTT1=
EXTT2=
EXTT3=
EXTT4=
EXTT5=
EXTT6=
EXTT7=
EXTT8=
EXTT9=
EXTT10=
PLAYORDER=
